<svg width="16" height="16" viewBox="0 0 16 16" fill="none" xmlns="http://www.w3.org/2000/svg">
<path fill-rule="evenodd" clip-rule="evenodd" d="M10.8854 5.72287C10.9979 5.6958 11.1174 5.71086 11.2182 5.76481C11.319 5.81876 11.393 5.9073 11.4245 6.01145C11.5721 6.50292 11.5954 7.0195 11.4927 7.52076C11.3899 8.02203 11.1639 8.49438 10.8323 8.90086C10.5006 9.30735 10.0724 9.63694 9.58105 9.86385C9.08971 10.0908 8.54858 10.2088 8.00002 10.2088C7.45145 10.2088 6.91033 10.0908 6.41898 9.86385C5.92763 9.63694 5.49939 9.30735 5.16776 8.90086C4.83613 8.49438 4.6101 8.02203 4.50737 7.52076C4.40463 7.0195 4.42798 6.50292 4.57557 6.01145C4.60699 5.9073 4.68103 5.81876 4.78182 5.76481C4.8826 5.71086 5.0021 5.6958 5.11468 5.72287C6.7689 6.11977 9.23113 6.11977 10.8854 5.72287ZM5.35113 6.62085C5.30864 6.96804 5.34549 7.31967 5.45925 7.65269C5.57302 7.98571 5.76114 8.29262 6.01129 8.55331C6.26143 8.81399 6.56797 9.02258 6.9108 9.16539C7.25364 9.30821 7.62504 9.38203 8.00068 9.38203C8.37633 9.38203 8.74773 9.30821 9.09057 9.16539C9.4334 9.02258 9.73993 8.81399 9.99008 8.55331C10.2402 8.29262 10.4283 7.98571 10.5421 7.65269C10.6559 7.31967 10.6927 6.96804 10.6502 6.62085C9.04268 6.92266 6.95824 6.92266 5.35113 6.62085Z" fill="#FF5C00"/>
<path fill-rule="evenodd" clip-rule="evenodd" d="M5.77778 10.4146C3.11689 10.8466 0 11.9496 0 13.5195V16.0001H16V13.5195C16 11.9496 12.8831 10.8466 10.2222 10.4146V12.2792H5.77778V10.4146V10.4146ZM3.11111 16.0001V12.2792H4V16.0001H3.11111ZM12.4444 12.2792V16.0001H13.3333V12.2792H12.4444Z" fill="#FF5C00"/>
<path fill-rule="evenodd" clip-rule="evenodd" d="M8.4534 0.0239794V1.8522C8.4534 1.96185 8.40657 2.06701 8.32322 2.14454C8.23987 2.22208 8.12683 2.26563 8.00895 2.26563C7.89108 2.26563 7.77803 2.22208 7.69468 2.14454C7.61133 2.06701 7.56451 1.96185 7.56451 1.8522V0C7.10566 0.0225602 6.65451 0.119085 6.23118 0.285271V2.67907C6.23118 2.78872 6.18435 2.89388 6.101 2.97142C6.01765 3.04895 5.90461 3.09251 5.78673 3.09251C5.66886 3.09251 5.55581 3.04895 5.47246 2.97142C5.38911 2.89388 5.34229 2.78872 5.34229 2.67907V0.8C4.7334 1.28703 4.38229 1.91876 4.27073 2.47235C4.26691 2.4916 4.26336 2.5109 4.26007 2.53023L4.25118 2.5385C4.21162 2.79855 4.2334 3.01271 4.29029 3.1599C4.32673 3.26231 4.31869 3.37392 4.26789 3.4709C4.21709 3.56788 4.12756 3.64254 4.0184 3.67896C3.90924 3.71538 3.7891 3.71067 3.68362 3.66583C3.57815 3.62099 3.49569 3.53958 3.45385 3.43897C3.44631 3.41981 3.4392 3.40051 3.43251 3.38109C0.851626 6.51577 15.1805 6.51411 12.581 3.37571C12.5742 3.39595 12.5671 3.41607 12.5596 3.43607C12.5186 3.53705 12.4368 3.61911 12.3317 3.66474C12.2265 3.71036 12.1064 3.71593 11.9969 3.68025C11.8874 3.64457 11.7972 3.57047 11.7457 3.47378C11.6941 3.37709 11.6852 3.26548 11.721 3.16279C11.785 2.99163 11.8036 2.7783 11.769 2.54264C11.7663 2.54082 11.7636 2.53903 11.761 2.53726C11.665 1.9783 11.2996 1.36021 10.6756 0.873179V2.67907C10.6756 2.78872 10.6288 2.89388 10.5454 2.97142C10.4621 3.04895 10.349 3.09251 10.2312 3.09251C10.1133 3.09251 10.0003 3.04895 9.9169 2.97142C9.83356 2.89388 9.78673 2.78872 9.78673 2.67907V0.356383C9.61319 0.283867 9.43456 0.222399 9.25206 0.172403C8.99092 0.101607 8.72371 0.0518111 8.4534 0.023566V0.0239794Z" fill="#FF5C00"/>
</svg>
