<svg width="200" height="215" viewBox="0 0 200 215" fill="none" xmlns="http://www.w3.org/2000/svg">
<path fill-rule="evenodd" clip-rule="evenodd" d="M136.067 76.8998C137.474 76.5362 138.968 76.7385 140.227 77.4635C141.487 78.1884 142.413 79.3782 142.806 80.7776C144.65 87.3818 144.942 94.3233 143.658 101.059C142.374 107.795 139.549 114.142 135.403 119.604C131.258 125.066 125.905 129.495 119.763 132.544C113.621 135.593 106.857 137.18 100 137.18C93.1429 137.18 86.3789 135.593 80.237 132.544C74.0952 129.495 68.7422 125.066 64.5968 119.604C60.4514 114.142 57.6261 107.795 56.3419 101.059C55.0577 94.3233 55.3495 87.3818 57.1944 80.7776C57.5872 79.3782 58.5127 78.1884 59.7725 77.4635C61.0323 76.7385 62.5261 76.5362 63.9333 76.8998C84.6111 82.2332 115.389 82.2332 136.067 76.8998ZM66.8889 88.9665C66.3578 93.6319 66.8184 98.3569 68.2405 102.832C69.6626 107.307 72.014 111.431 75.1409 114.934C78.2677 118.437 82.0994 121.24 86.3848 123.159C90.6702 125.078 95.3128 126.07 100.008 126.07C104.704 126.07 109.346 125.078 113.632 123.159C117.917 121.24 121.749 118.437 124.876 114.934C128.003 111.431 130.354 107.307 131.776 102.832C133.198 98.3569 133.659 93.6319 133.128 88.9665C113.033 93.0221 86.9778 93.0221 66.8889 88.9665Z" fill="url(#paint0_linear)" fill-opacity="0.47"/>
<path fill-rule="evenodd" clip-rule="evenodd" d="M72.2222 139.944C38.9611 145.75 0 160.572 0 181.667V215H200V181.667C200 160.572 161.039 145.75 127.778 139.944V165H72.2222V139.944ZM38.8889 215V165H50V215H38.8889ZM155.556 165V215H166.667V165H155.556Z" fill="url(#paint1_linear)" fill-opacity="0.47"/>
<path fill-rule="evenodd" clip-rule="evenodd" d="M105.668 0.322223V24.8889C105.668 26.3623 105.082 27.7754 104.04 28.8173C102.999 29.8591 101.585 30.4444 100.112 30.4444C98.6386 30.4444 97.2255 29.8591 96.1837 28.8173C95.1418 27.7754 94.5565 26.3623 94.5565 24.8889V0C88.8209 0.303153 83.1815 1.60021 77.8898 3.83333V36C77.8898 37.4734 77.3045 38.8865 76.2626 39.9284C75.2208 40.9702 73.8077 41.5556 72.3343 41.5556C70.8608 41.5556 69.4477 40.9702 68.4059 39.9284C67.364 38.8865 66.7787 37.4734 66.7787 36V10.75C59.1676 17.2944 54.7787 25.7833 53.3842 33.2222C53.3365 33.4809 53.2921 33.7402 53.2509 34L53.1398 34.1111C52.6454 37.6056 52.9176 40.4833 53.6287 42.4611C54.0842 43.8373 53.9837 45.337 53.3487 46.6402C52.7137 47.9433 51.5946 48.9467 50.2301 49.436C48.8656 49.9254 47.3638 49.8621 46.0454 49.2596C44.7269 48.6571 43.6962 47.5631 43.1731 46.2111C43.079 45.9537 42.9901 45.6944 42.9065 45.4333C10.6454 87.5556 189.756 87.5333 157.262 45.3611C157.178 45.6331 157.089 45.9035 156.995 46.1722C156.483 47.5291 155.461 48.6318 154.146 49.2449C152.832 49.858 151.33 49.9328 149.961 49.4533C148.592 48.9738 147.465 47.9781 146.821 46.6789C146.176 45.3796 146.066 43.8799 146.512 42.5C147.312 40.2 147.545 37.3333 147.112 34.1667C147.079 34.1422 147.046 34.1182 147.012 34.0944C145.812 26.5833 141.245 18.2778 133.445 11.7333V36C133.445 37.4734 132.86 38.8865 131.818 39.9284C130.776 40.9702 129.363 41.5556 127.89 41.5556C126.416 41.5556 125.003 40.9702 123.961 39.9284C122.92 38.8865 122.334 37.4734 122.334 36V4.78889C120.165 3.81446 117.932 2.98849 115.651 2.31667C112.387 1.36534 109.047 0.696212 105.668 0.316668V0.322223Z" fill="url(#paint2_linear)" fill-opacity="0.47"/>
<defs>
<linearGradient id="paint0_linear" x1="100" y1="76.7231" x2="100" y2="137.18" gradientUnits="userSpaceOnUse">
<stop stop-color="white"/>
<stop offset="1" stop-color="white" stop-opacity="0"/>
</linearGradient>
<linearGradient id="paint1_linear" x1="100" y1="139.944" x2="100" y2="215" gradientUnits="userSpaceOnUse">
<stop stop-color="white"/>
<stop offset="1" stop-color="white" stop-opacity="0"/>
</linearGradient>
<linearGradient id="paint2_linear" x1="100.111" y1="0" x2="100.111" y2="77.0077" gradientUnits="userSpaceOnUse">
<stop stop-color="white"/>
<stop offset="1" stop-color="white" stop-opacity="0"/>
</linearGradient>
</defs>
</svg>
